<svg width="52" height="52" viewBox="0 0 52 52" fill="none" xmlns="http://www.w3.org/2000/svg">
<path d="M38.1293 33.5343H35.7196L34.8656 32.7112C38.5258 28.4435 40.4169 22.621 39.3798 16.4328C37.9463 7.95823 30.8698 1.19078 22.3293 0.154327C9.42699 -1.43084 -1.43168 9.42146 0.154418 22.3162C1.19148 30.8517 7.9629 37.924 16.4424 39.3568C22.6343 40.3932 28.4602 38.5032 32.7304 34.8451L33.554 35.6987V38.1069L46.5173 51.0626C47.7679 52.3125 49.8115 52.3125 51.0621 51.0626C52.3126 49.8128 52.3126 47.7703 51.0621 46.5205L38.1293 33.5343ZM19.8281 33.5343C12.2332 33.5343 6.10229 27.407 6.10229 19.8165C6.10229 12.226 12.2332 6.09871 19.8281 6.09871C27.4231 6.09871 33.554 12.226 33.554 19.8165C33.554 27.407 27.4231 33.5343 19.8281 33.5343Z" fill="#7287FD"/>
</svg>
